<svg xmlns="http://www.w3.org/2000/svg" fill="none" role="img" aria-label="Universal Audio Logo" width="92" height="66" viewBox="0 0 92 66">
        <path fill="currentColor" d="M3.307 55.748h.973v6.107c0 1.868.132 2.737 1.422 2.737s1.421-.895 1.421-2.737v-6.107h.974v6.186c0 1.263-.026 2.132-.5 2.71-.395.5-1.08.816-1.895.816-.842 0-1.5-.315-1.895-.815-.474-.606-.5-1.474-.5-2.711v-6.186ZM11.203 56.485v8.791h-.869v-9.528h1.421l1.974 5.396c.29.79.553 1.58.79 2.369-.08-.816-.08-1.527-.08-2.08v-5.685h.87v9.528h-.974l-2.396-6.58a19.773 19.773 0 0 1-.736-2.21ZM18.546 55.748h-.974v9.528h.974v-9.528ZM20.02 55.748h.973l1.422 6.502c.079.342.158.842.236 1.5.08-.474.159-.974.29-1.527l1.421-6.448h.948l-2.185 9.528h-.92l-2.185-9.555ZM27.021 55.748h4.29v.895h-3.316v3.29h2.422v.869h-2.422v3.606h3.422v.895H27.02v-9.555ZM33.312 55.748h1.737c2.053 0 3.08.816 3.08 2.5 0 1.159-.527 1.975-1.501 2.29l1.553 4.738h-1.053L35.68 60.75c-.342.027-.684.027-1.026.027h-.395v4.5h-.974l.027-9.528Zm1.79 4.185c1.315 0 1.973-.552 1.973-1.658 0-1.132-.658-1.658-1.974-1.658h-.842v3.316h.842ZM40.286 62.75c.08 1.237.553 1.842 1.527 1.842.842 0 1.395-.632 1.395-1.58 0-1.026-.684-1.631-1.842-2.5-1.185-.868-1.843-1.5-1.843-2.79 0-1.21.895-2.158 2.106-2.158 1.421 0 2.29.948 2.342 2.58h-.921c-.079-1.185-.553-1.764-1.395-1.764-.79 0-1.29.526-1.29 1.342 0 .422.185.816.474 1.132.5.527 1.158.948 1.79 1.448 1.026.816 1.5 1.579 1.5 2.684 0 1.527-.947 2.5-2.342 2.5-1.5 0-2.395-.973-2.422-2.71l.921-.027ZM47.656 55.748h1.342l2.08 9.528H50.05l-.553-2.816h-2.395l-.553 2.816h-.974l2.08-9.528Zm1.631 5.844-1-4.975-1 4.975h2ZM52.92 55.748h.974v8.633h3v.922H52.92v-9.555ZM62.08 55.748h1.342l2.079 9.528h-1.027l-.552-2.816h-2.395l-.553 2.816H60l2.08-9.528Zm1.631 5.844-1-4.975-1 4.975h2ZM67.002 55.748h.974v6.107c0 1.868.131 2.737 1.421 2.737s1.421-.895 1.421-2.737v-6.107h.974v6.186c0 1.263-.052 2.132-.5 2.71-.395.5-1.079.816-1.895.816-.842 0-1.5-.315-1.895-.816-.474-.605-.5-1.473-.5-2.71v-6.186ZM73.793 55.748h1.763c2.264 0 3.159 1.474 3.159 4.738 0 3.29-.895 4.79-3.159 4.79h-1.763v-9.528Zm.974 8.633c.184.027.368.027.526.027 1.895 0 2.448-1.132 2.448-3.948 0-2.79-.553-3.896-2.421-3.896-.185 0-.369.027-.553.027v7.79ZM81.661 55.748h-.974v9.528h.974v-9.528ZM83.373 60.512c0-3.29.921-4.948 2.632-4.948 1.71 0 2.632 1.658 2.632 4.948 0 3.29-.921 4.948-2.632 4.948-1.737.027-2.632-1.658-2.632-4.948Zm1.026-.21c0 2.895.422 4.29 1.606 4.29 1.158 0 1.606-1.342 1.606-4.053 0-2.738-.474-4.054-1.606-4.054-1.132-.026-1.605 1.237-1.605 3.817ZM55.292 36.219v-6.843l19.687-.948-.105-1.369H55.318V15.085a6.026 6.026 0 0 0-6.027-6.027 6.026 6.026 0 0 0-6.027 6.027V27.086h-1.159l-2.21 3.053 3.369-.158v5.422c0 1.921-1.553 3.474-3.501 3.5-1.921 0-3.474-1.552-3.5-3.5l.026-17.187v-.263s.079-2.316-1.264-3.5c-1.79-1.554-5.474-.659-5.474-.659 4.58.026 4.185 3.948 4.185 3.948v17.661a6.026 6.026 0 0 0 6.027 6.027 6.026 6.026 0 0 0 6.027-6.027V29.85l7.001-.343v6.528s-.131 2.316 1.211 3.5c1.79 1.553 5.475.658 5.475.658-4.37.027-4.185-3.974-4.185-3.974Zm-9.502-9.16V15.084c0-1.921 1.553-3.474 3.5-3.5 1.922 0 3.475 1.552 3.501 3.5l.027 11.976H45.79Z"></path>
        <path fill="currentColor" d="M6.73 26.112 46 3.345l39.27 22.767L46 48.879 6.73 26.112Zm83.567 0L46 .424 1.703 26.112 46 51.8l44.297-25.688Z"></path>
      </svg>